<?xml version="1.0" encoding="UTF-8" standalone="no"?>
<svg
   xmlns:dc="http://purl.org/dc/elements/1.1/"
   xmlns:cc="http://creativecommons.org/ns#"
   xmlns:rdf="http://www.w3.org/1999/02/22-rdf-syntax-ns#"
   xmlns:svg="http://www.w3.org/2000/svg"
   xmlns="http://www.w3.org/2000/svg"
   xmlns:xlink="http://www.w3.org/1999/xlink"
   xmlns:sodipodi="http://sodipodi.sourceforge.net/DTD/sodipodi-0.dtd"
   xmlns:inkscape="http://www.inkscape.org/namespaces/inkscape"
   id="Layer_1"
   enable-background="new 0 0 512 512"
   height="64"
   viewBox="0 0 210 64"
   width="210"
   version="1.1"
   sodipodi:docname="scryp_logo.svg"
   inkscape:version="1.0.2-2 (e86c870879, 2021-01-15)"
   inkscape:export-filename="C:\Users\wertex\Desktop\bitmap.png"
   inkscape:export-xdpi="96"
   inkscape:export-ydpi="96">
  <metadata
     id="metadata874">
    <rdf:RDF>
      <cc:Work
         rdf:about="">
        <dc:format>image/svg+xml</dc:format>
        <dc:type
           rdf:resource="http://purl.org/dc/dcmitype/StillImage" />
        <dc:title></dc:title>
      </cc:Work>
    </rdf:RDF>
  </metadata>
  <defs
     id="defs872">
    <linearGradient
       inkscape:collect="always"
       id="linearGradient1506">
      <stop
         style="stop-color:#9ed8fc;stop-opacity:1;"
         offset="0"
         id="stop1502" />
      <stop
         style="stop-color:#9ed8fc;stop-opacity:0;"
         offset="1"
         id="stop1504" />
    </linearGradient>
    <linearGradient
       inkscape:collect="always"
       xlink:href="#linearGradient1506"
       id="linearGradient1508"
       x1="78.924255"
       y1="38.333576"
       x2="174.6026"
       y2="38.333576"
       gradientUnits="userSpaceOnUse" />
  </defs>
  <sodipodi:namedview
     pagecolor="#ffffff"
     bordercolor="#666666"
     borderopacity="1"
     objecttolerance="10"
     gridtolerance="10"
     guidetolerance="10"
     inkscape:pageopacity="0"
     inkscape:pageshadow="2"
     inkscape:window-width="1858"
     inkscape:window-height="1057"
     id="namedview870"
     showgrid="false"
     inkscape:document-rotation="0"
     inkscape:zoom="4.9619048"
     inkscape:cx="97.826026"
     inkscape:cy="44.61296"
     inkscape:window-x="54"
     inkscape:window-y="-8"
     inkscape:window-maximized="1"
     inkscape:current-layer="Layer_1" />
  <linearGradient
     id="SVGID_1_"
     gradientUnits="userSpaceOnUse"
     x1="21.024"
     x2="490.97699"
     y1="256"
     y2="256"
     gradientTransform="matrix(0.07908286,0,0,0.08114539,37.295445,11.162572)">
    <stop
       offset="0"
       stop-color="#9dd6fc"
       id="stop862" />
    <stop
       offset="1"
       stop-color="#d17ff7"
       id="stop864" />
  </linearGradient>
  <path
     d="m 76.123309,26.829796 v -0.01226 c 0,-0.557955 -0.278687,-1.071602 -0.729536,-1.367297 L 58.530617,11.521304 c -0.578887,-0.478272 -1.404275,-0.478353 -1.98332,-2.13e-4 L 39.544482,25.559224 c -0.781892,0.62798 -0.781813,1.900991 0,2.528813 l 4.660273,3.847748 -4.660352,3.847755 c -0.781892,0.627984 -0.781813,1.900991 0,2.528812 L 56.54722,52.3505 c 0.578964,0.478032 1.40451,0.478032 1.983318,-2.13e-4 L 75.393692,38.421358 c 0.450773,-0.295687 0.72954,-0.809342 0.72954,-1.367296 v -0.01226 c 0,-0.557954 -0.278688,-1.071608 -0.72954,-1.367296 l -4.526306,-3.738689 4.526387,-3.738774 c 0.450771,-0.29561 0.729536,-0.809259 0.729536,-1.367218 z m -7.778192,3.022585 -9.8145,-8.10675 C 57.95173,21.26736 57.126342,21.26736 56.547297,21.745418 l -5.773048,4.766483 c -1.582605,1.416712 0.29743,3.811475 1.983082,2.528811 l 4.781271,-3.947641 14.473269,11.954902 -14.473269,11.954908 -14.479599,-11.954908 3.668813,-3.029071 9.819481,8.107316 c 0.578966,0.478027 1.404512,0.478027 1.98332,-2.14e-4 l 5.773048,-4.768511 c 0.680428,-0.562013 0.788062,-1.583631 0.240253,-2.281888 -0.547647,-0.698175 -1.5433,-0.808532 -2.223808,-0.246519 L 57.538602,38.77851 43.059003,26.823691 57.538602,14.868782 72.011871,26.823691 Z"
     fill="url(#SVGID_1_)"
     id="path867"
     style="fill:#ffffff;stroke-width:1;fill-opacity:1" />
  <text
     xml:space="preserve"
     style="font-style:normal;font-variant:normal;font-weight:normal;font-stretch:normal;font-size:56px;line-height:1.25;font-family:'Times New Roman';-inkscape-font-specification:'Times New Roman, Normal';font-variant-ligatures:normal;font-variant-caps:normal;font-variant-numeric:normal;font-variant-east-asian:normal;fill:#ffffff;fill-opacity:1;stroke:none;"
     x="77.011475"
     y="45.183186"
     id="text1439"><tspan
       sodipodi:role="line"
       id="tspan1437"
       x="77.011475"
       y="45.183186"
       style="font-style:normal;font-variant:normal;font-weight:normal;font-stretch:normal;font-size:56px;font-family:'Times New Roman';-inkscape-font-specification:'Times New Roman, Normal';font-variant-ligatures:normal;font-variant-caps:normal;font-variant-numeric:normal;font-variant-east-asian:normal;fill:#ffffff;fill-opacity:1;">cryp</tspan></text>
</svg>
