<svg id="Layer_1" enable-background="new 0 0 512 512" height="512" viewBox="0 0 512 512" width="512" xmlns="http://www.w3.org/2000/svg" xmlns:xlink="http://www.w3.org/1999/xlink"><linearGradient id="SVGID_1_" gradientUnits="userSpaceOnUse" x1="21.024" x2="490.977" y1="256" y2="256"><stop offset="0" stop-color="#9dd6fc"/><stop offset="1" stop-color="#d17ff7"/></linearGradient><path d="m490.977 193.076v-.151c0-6.876-3.524-13.206-9.225-16.85l-213.234-171.654c-7.32-5.894-17.757-5.895-25.079-.003l-215 173c-9.887 7.739-9.886 23.427 0 31.164l58.929 47.418-58.93 47.418c-9.887 7.739-9.886 23.427 0 31.164l215 173c7.321 5.891 17.76 5.891 25.079-.003l213.234-171.654c5.7-3.644 9.225-9.974 9.225-16.85v-.151c0-6.876-3.524-13.206-9.225-16.85l-57.235-46.074 57.236-46.075c5.7-3.643 9.225-9.973 9.225-16.849zm-98.355 37.249-124.104-99.904c-7.32-5.894-17.757-5.894-25.079-.003l-73 58.74c-20.012 17.459 3.761 46.971 25.076 31.164l60.459-48.649 183.014 147.327-183.014 147.327-183.094-147.327 46.392-37.329 124.167 99.911c7.321 5.891 17.76 5.891 25.079-.003l73-58.765c8.604-6.926 9.965-19.516 3.038-28.121-6.925-8.604-19.515-9.964-28.12-3.038l-60.462 48.671-183.094-147.326 183.094-147.327 183.014 147.327z" fill="url(#SVGID_1_)"/></svg>