<svg width="210" height="64" xmlns="http://www.w3.org/2000/svg">
 <!-- Created with Method Draw - http://github.com/duopixel/Method-Draw/ -->
 <defs>
  <linearGradient id="svg_23" x1="0.5" y1="0.17795" x2="0.5" y2="0.82248">
   <stop stop-color="#9ed8fc" stop-opacity="0.99609" offset="0"/>
   <stop stop-color="#d280f7" stop-opacity="0.99609" offset="1"/>
  </linearGradient>
  <linearGradient id="svg_5" x1="0" x2="1" y1="0.5" y2="0.5">
   <stop offset="0" stop-color="#9dd6fc"/>
   <stop offset="1" stop-color="#d17ff7"/>
  </linearGradient>
 </defs>
 <g id="Layer_1">
  <title>Layer 1</title>
  <g stroke="null" id="svg_8">
   <path stroke="null" d="m47.48712,25.71871l0,-0.01456c0,-0.66309 -0.33775,-1.27352 -0.88417,-1.62493l-20.43739,-16.55345c-0.70158,-0.56839 -1.70192,-0.56848 -2.40369,-0.00029l-20.60665,16.68325c-0.94762,0.74631 -0.94753,2.25918 0,3.0053l5.64805,4.57275l-5.64814,4.57275c-0.94762,0.74631 -0.94753,2.25918 0,3.0053l20.60665,16.68325c0.70168,0.5681 1.70221,0.5681 2.40369,-0.00029l20.43739,-16.55345c0.54632,-0.35141 0.88417,-0.96184 0.88417,-1.62493l0,-0.01456c0,-0.66309 -0.33775,-1.27352 -0.88417,-1.62493l-5.48568,-4.44315l5.48578,-4.44324c0.54632,-0.35131 0.88417,-0.96175 0.88417,-1.62483l-0.00001,-0.00001zm-9.42682,3.59211l-11.89473,-9.63424c-0.70158,-0.56839 -1.70192,-0.56839 -2.40369,-0.00029l-6.99667,5.66459c-1.91804,1.68366 0.36047,4.52965 2.40341,3.0053l5.79468,-4.69147l17.54095,14.20748l-17.54095,14.20748l-17.54862,-14.20748l4.44644,-3.59982l11.90077,9.63491c0.70168,0.5681 1.70221,0.5681 2.40369,-0.00029l6.99667,-5.667c0.82465,-0.66791 0.9551,-1.88202 0.29118,-2.71185c-0.66373,-0.82972 -1.87041,-0.96087 -2.69516,-0.29297l-5.79497,4.69359l-17.54862,-14.20738l17.54862,-14.20748l17.54095,14.20748l-4.44394,3.59944l-0.00001,0z" fill="url(#svg_5)" id="svg_7"/>
  </g>
  <text fill="url(#svg_23)" stroke-width="0" opacity="undefined" x="66.56077" y="42.96755" id="svg_9" font-size="44" font-family="sans-serif" text-anchor="start" xml:space="preserve" transform="matrix(1,0,0,0.943346769945052,-14.715721130371094,2.5799501581925135) " stroke="#000">scryp.ru</text>
 </g>
</svg>